<?xml version="1.0" encoding="UTF-8"?>
<svg id="Camada_1" data-name="Camada 1" xmlns="http://www.w3.org/2000/svg" xmlns:xlink="http://www.w3.org/1999/xlink" viewBox="0 0 665.24 665.24">
  <defs>
    <style>
      .cls-1 {
        fill: url(#Gradiente_sem_nome_2);
      }
    </style>
    <linearGradient id="Gradiente_sem_nome_2" data-name="Gradiente sem nome 2" x1="0" y1="365.52" x2="665.24" y2="365.52" gradientTransform="translate(0 698.14) scale(1 -1)" gradientUnits="userSpaceOnUse">
      <stop offset=".3" stop-color="#07a6ff"/>
      <stop offset="1" stop-color="#6135fb"/>
    </linearGradient>
  </defs>
  <path class="cls-1" d="m330.43,0C148.05,1.1,0,149.88,0,332.26s149.15,332.99,332.26,332.99,332.99-149.15,332.99-332.99S516.46,1.1,334.26,0h-3.83ZM104.61,489.44c-20.63-2.01-31.22-7.3-33.96-29.39-4.02-41.99-4.02-84.52-4.02-127.79s0-85.25,4.02-127.24c2.74-21.91,13.33-27.38,33.96-29.39,73.21-8.03,151.89-10.04,227.83-10.04s154.44,2.01,227.1,10.04c21.36,2.01,31.95,7.3,34.69,29.39,3.29,41.99,3.29,84.52,3.29,127.24s0,85.98-3.29,127.79c-2.74,21.91-13.33,27.38-34.69,29.39-72.66,8.03-151.16,10.04-227.1,10.04s-154.63-2.01-227.83-10.04m93.1-157.18c0,73.94,58.6,135.28,134.55,135.28s134.55-61.34,134.55-135.28-58.6-134.55-134.55-134.55-134.55,61.34-134.55,134.55"/>
</svg>