<?xml version="1.0" encoding="UTF-8"?>
<svg id="_Слой_1" data-name="Слой 1" xmlns="http://www.w3.org/2000/svg" version="1.1" xmlns:xlink="http://www.w3.org/1999/xlink" viewBox="0 0 1266 364.4">
  <defs>
    <style>
      .cls-1 {
        fill: #FFFFFF;
        stroke-width: 0px;
      }
    </style>
    <linearGradient id="Gradiente_sem_nome_8" data-name="Gradiente sem nome 8" x1="0" y1="182.2" x2="1266" y2="182.2" gradientUnits="userSpaceOnUse">
      <stop offset=".3" stop-color="#07a6ff"/>
      <stop offset="1" stop-color="#6135fb"/>
    </linearGradient>
  </defs>
  <path class="cls-1" d="M181,0C81.1.6,0,82.1,0,182s81.7,182.4,182,182.4,182.4-81.7,182.4-182.4S282.9.6,183.1,0h-2.1ZM57.3,268.1c-11.3-1.1-17.1-4-18.6-16.1-2.2-23-2.2-46.3-2.2-70s0-46.7,2.2-69.7c1.5-12,7.3-15,18.6-16.1,40.1-4.4,83.2-5.5,124.8-5.5s84.6,1.1,124.4,5.5c11.7,1.1,17.5,4,19,16.1,1.8,23,1.8,46.3,1.8,69.7s0,47.1-1.8,70c-1.5,12-7.3,15-19,16.1-39.8,4.4-82.8,5.5-124.4,5.5s-84.7-1.1-124.8-5.5M108.3,182c0,40.5,32.1,74.1,73.7,74.1s73.7-33.6,73.7-74.1-32.1-73.7-73.7-73.7-73.7,33.6-73.7,73.7M615.4,29.7v229.1c0,12.2,7.6,17.2,18.7,12.2l14.5-6.5c9.2-4.2,13.4-10.3,13.4-20.3V44.2c0-9.9-4.2-16.1-13.4-20.3l-14.5-6.5c-2.9-1.3-5.5-1.9-7.9-1.9-6.6,0-10.8,5.1-10.8,14.2M895.4,19c-5.7,0-9.2,3.4-9.2,9.2v232.2c0,5.7,3.4,9.2,9.2,9.2h25.6c5.7,0,9.2-3.4,9.2-9.2v-9.9c11.1,12.6,31.7,22.2,52,22.2,44.8,0,83.4-40.5,83.4-91.8s-39-91.8-84.5-91.8-36.3,8-48.2,20.3V28.2c0-5.7-3.4-9.2-9.2-9.2h-28.3ZM932.1,180.8c0-27.9,19.9-47,43.6-47s43.6,19.1,43.6,47-19.9,47-43.6,47-43.6-18.7-43.6-47M1084.7,180.8c0,53.2,40.5,91.8,90.7,91.8s90.6-38.6,90.6-91.8-40.5-91.8-90.6-91.8-90.7,38.6-90.7,91.8M1131,180.8c0-27.2,19.9-47,44.4-47s44.4,19.9,44.4,47-19.9,47-44.4,47-44.4-19.9-44.4-47M683.5,180.8c0,53.2,40.5,91.8,90.7,91.8s90.6-38.6,90.6-91.8-40.5-91.8-90.6-91.8-90.7,38.6-90.7,91.8M729.8,180.8c0-27.2,19.9-47,44.4-47s44.4,19.9,44.4,47-19.9,47-44.4,47-44.4-19.9-44.4-47M411.9,180.8c0,52,37.9,88,85.7,88s37.9-9.9,47.4-20.3c-.4,36.3-19.5,52.8-52.4,52.8s-34-5.4-53.2-17.6c-5-3.4-10.7-2.3-13.4,3.1l-11.5,22.6c-2.7,5.4-1.9,10.3,3.4,13.8,23.7,15.3,51.6,22.9,75.7,22.9,63.1,0,97.9-34,97.9-112.5V101.2c0-5.7-3.4-9.2-9.2-9.2h-26c-5.7,0-9.2,3.4-9.2,9.2v9.9c-10.1-12.6-29.2-22.1-48.4-22.1-46.6,0-86.8,39.8-86.8,91.8M457.4,180.4c0-28.3,20.3-47,44.4-47s44,18.7,44,47-19.9,47-44,47-44.4-19.1-44.4-47"/>
</svg>